<svg width="128" height="128" viewBox="0 0 128 128" fill="none" xmlns="http://www.w3.org/2000/svg">
<path d="M98.9987 10.761L98.9028 28.4867L72.0747 44.2983L86.6386 52.3445V69.7828L58.3732 86.0713V115.678L43.3303 124.493L28.0958 115.678V85.7369V77.9271V68.9094V60.8721V52.4373L28 34.7146L54.5407 20.2443L70.2543 11.0973L84.5306 3L98.9987 10.761Z" fill="#F14E69"/>
<path d="M43.3303 43.338L58.3732 34.4272M43.3303 43.338L28 34.7147M43.3303 43.338V60.8721M98.9987 10.761L98.9028 28.4867L72.0747 44.2983M98.9987 10.761L58.3732 34.4272M98.9987 10.761L84.5306 3L70.2543 11.0973L54.5407 20.2443L28 34.7147M43.3303 60.8721V77.9271M43.3303 60.8721L28.0958 52.4373M43.3303 60.8721L72.0747 44.2983M86.6386 52.3445V69.7828L58.3732 86.0713V115.678L43.3303 124.493M86.6386 52.3445L72.0747 44.2983M86.6386 52.3445L58.3732 68.7284V34.4272M43.3303 77.448V77.9271M43.3303 124.493L28.0958 115.678V85.7369V68.9094M43.3303 124.493V94.1197V77.9271M28.0958 77.9271V68.9094M28.0958 68.9094V60.8721V52.4373M28.0958 52.4373L28 34.7147" stroke="black" stroke-width="3"/>
<path d="M57.625 70.0312L58.751 69.3779L85.8906 53.6465V69.3496L58 85.4219L57.625 85.6387V115.248L44.082 123.185V61.3057L57.625 53.4971V70.0312ZM57.625 51.7656L44.082 59.5732V43.7656L57.625 35.7432V51.7656ZM98.1562 28.0566L71.7021 43.6494L59.125 50.9004V34.8594L98.2422 12.0713L98.1562 28.0566Z" fill="#CA354D" stroke="black" stroke-width="1.5"/>
<path d="M58.3732 34.4273V52.1985L43.3303 60.8722L28.0958 52.4374L28 34.7148L43.3303 26.3564L58.3732 34.4273Z" fill="#F14E69"/>
<path d="M43.3303 43.3381L58.3732 34.4273M43.3303 43.3381L28 34.7148M43.3303 43.3381V60.8722M58.3732 34.4273V52.1985L43.3303 60.8722M58.3732 34.4273L43.3303 26.3564L28 34.7148M43.3303 60.8722L28.0958 52.4374L28 34.7148" stroke="black" stroke-width="3"/>
</svg>
