<svg width="512" height="512" viewBox="0 0 512 512" fill="none" xmlns="http://www.w3.org/2000/svg">
<path d="M53.3478 137.339L53 73.345L105.169 43.8818L215.638 103.595L311.757 155.076L257.154 187.421V251.067L201.855 220.45V251.067V280.241V312.974L177.162 327.734L163.598 320.271V364.795L110.038 396.791L55.4345 366.534L54.3912 259.414L54.0434 197.159L53.3478 137.339Z" fill="#F5F5F5"/>
<path d="M53 73.345L53.3478 137.339L54.0434 197.159L54.3912 259.414L55.4345 366.534L110.038 396.791M53 73.345L108.299 104.057L201.507 156.119M53 73.345L105.169 43.8818L215.638 103.595L311.757 155.076L257.154 187.421M257.154 187.421L201.507 156.119M257.154 187.421V251.067L201.855 220.45M110.038 396.791L163.598 364.795V320.271M110.038 396.791V290.799L163.598 320.271M163.598 320.271L177.162 327.734M177.162 266.401V327.734M177.162 266.401L201.855 251.067M177.162 266.401L108.299 227.805M177.162 327.734L201.855 312.974V280.241V251.067M201.855 220.45V251.067M201.855 220.45L159.16 196.811M201.855 220.45L201.507 156.119M108.299 227.805L159.16 196.811M108.299 227.805V168.651L159.16 196.811" stroke="black" stroke-width="10"/>
<path d="M459.222 69.1711L458.874 133.513L361.492 190.906L414.356 220.113V283.411L311.758 342.535V450.003L257.154 482L201.856 450.003V341.321V312.973V280.24V251.066V220.449L201.508 156.119L297.846 103.594L354.884 70.3917L406.705 41L459.222 69.1711Z" fill="#F14E69"/>
<path d="M257.154 187.42L311.758 155.076M257.154 187.42L201.508 156.119M257.154 187.42V251.066M459.222 69.1711L458.874 133.513L361.492 190.906M459.222 69.1711L311.758 155.076M459.222 69.1711L406.705 41L354.884 70.3917L297.846 103.594L201.508 156.119M257.154 251.066V312.973M257.154 251.066L201.856 220.449M257.154 251.066L361.492 190.906M414.356 220.113V283.411L311.758 342.535V450.003L257.154 482M414.356 220.113L361.492 190.906M414.356 220.113L311.758 279.584V155.076M257.154 311.234V312.973M257.154 482L201.856 450.003V341.321V280.24M257.154 482V371.75V312.973M201.856 312.973V280.24M201.856 280.24V251.066V220.449M201.856 220.449L201.508 156.119" stroke="black" stroke-width="10"/>
<path d="M309.258 283.922L313.012 281.746L411.856 224.451V281.965L310.51 340.369L309.258 341.091V448.569L259.654 477.637V252.51L309.258 223.909V283.922ZM309.258 218.137L259.654 246.738V188.845L309.258 159.461V218.137ZM456.381 132.078L360.223 188.752L314.258 215.254V156.512L456.697 73.5332L456.381 132.078Z" fill="#CA354D" stroke="black" stroke-width="5"/>
<path d="M311.758 155.075V219.582L257.154 251.066L201.856 220.449L201.508 156.119L257.154 125.779L311.758 155.075Z" fill="#F14E69"/>
<path d="M257.154 187.42L311.758 155.075M257.154 187.42L201.508 156.119M257.154 187.42V251.066M311.758 155.075V219.582L257.154 251.066M311.758 155.075L257.154 125.779L201.508 156.119M257.154 251.066L201.856 220.449L201.508 156.119" stroke="black" stroke-width="10"/>
</svg>
